<mxfile host="www.draw.io" modified="2020-01-20T06:29:56.622Z" agent="Mozilla/5.0 (Windows NT 10.0; Win64; x64) AppleWebKit/537.36 (KHTML, like Gecko) Chrome/78.0.3904.108 Safari/537.36" etag="yv0c_fKjzwpjVvPjK6YC" version="12.5.5" type="github">
  <diagram id="VF5pvgFYAHLp7ouLe1mw" name="Page-1">
    <mxGraphModel dx="1038" dy="579" grid="1" gridSize="10" guides="1" tooltips="1" connect="1" arrows="1" fold="1" page="1" pageScale="1" pageWidth="827" pageHeight="1169" math="0" shadow="0">
      <root>
        <mxCell id="0"/>
        <mxCell id="1" parent="0"/>
        <mxCell id="FR9h0kr16kNeX0JtV4EL-1" value="origin JSON" style="dashed=0;outlineConnect=0;html=1;align=center;labelPosition=center;verticalLabelPosition=bottom;verticalAlign=top;shape=mxgraph.weblogos.json_2" vertex="1" parent="1">
          <mxGeometry x="30" y="340" width="70" height="20" as="geometry"/>
        </mxCell>
        <mxCell id="FR9h0kr16kNeX0JtV4EL-2" value="&amp;nbsp;intents" style="shape=image;html=1;verticalAlign=top;verticalLabelPosition=bottom;labelBackgroundColor=#ffffff;imageAspect=0;aspect=fixed;image=https://cdn2.iconfinder.com/data/icons/competitive-strategy-and-corporate-training/512/725_Aspiration_business_desire_employee_intent-128.png" vertex="1" parent="1">
          <mxGeometry x="432" y="460" width="108" height="108" as="geometry"/>
        </mxCell>
        <mxCell id="FR9h0kr16kNeX0JtV4EL-10" value="view lustJson" style="shape=image;html=1;verticalAlign=top;verticalLabelPosition=bottom;labelBackgroundColor=#ffffff;imageAspect=0;aspect=fixed;image=https://raw.githubusercontent.com/aceunlonely/lustJson/master/docs/lustjson.jpg;" vertex="1" parent="1">
          <mxGeometry x="220" y="73.6" width="215.02" height="80" as="geometry"/>
        </mxCell>
        <mxCell id="FR9h0kr16kNeX0JtV4EL-11" value="view intents" style="shape=image;html=1;verticalAlign=top;verticalLabelPosition=bottom;labelBackgroundColor=#ffffff;imageAspect=0;aspect=fixed;image=https://cdn2.iconfinder.com/data/icons/competitive-strategy-and-corporate-training/512/725_Aspiration_business_desire_employee_intent-128.png" vertex="1" parent="1">
          <mxGeometry x="80" y="450" width="110" height="110" as="geometry"/>
        </mxCell>
        <mxCell id="FR9h0kr16kNeX0JtV4EL-12" value="views" style="aspect=fixed;perimeter=ellipsePerimeter;html=1;align=center;shadow=0;dashed=0;spacingTop=3;image;image=img/lib/active_directory/home_page.svg;" vertex="1" parent="1">
          <mxGeometry x="610" y="294" width="124.44" height="111.99" as="geometry"/>
        </mxCell>
        <mxCell id="FR9h0kr16kNeX0JtV4EL-49" style="edgeStyle=none;rounded=0;orthogonalLoop=1;jettySize=auto;html=1;dashed=1;" edge="1" parent="1" source="FR9h0kr16kNeX0JtV4EL-13" target="FR9h0kr16kNeX0JtV4EL-14">
          <mxGeometry relative="1" as="geometry"/>
        </mxCell>
        <mxCell id="FR9h0kr16kNeX0JtV4EL-13" value="ison sexy servant" style="aspect=fixed;perimeter=ellipsePerimeter;html=1;align=center;shadow=0;dashed=0;spacingTop=3;image;image=https://github.com/aceunlonely/lustJson/blob/master/docs/sxg.png?raw=true;" vertex="1" parent="1">
          <mxGeometry x="482.09" y="80" width="94" height="94" as="geometry"/>
        </mxCell>
        <mxCell id="FR9h0kr16kNeX0JtV4EL-14" value="ison render" style="shape=image;html=1;verticalAlign=top;verticalLabelPosition=bottom;labelBackgroundColor=#ffffff;imageAspect=0;aspect=fixed;image=https://cdn4.iconfinder.com/data/icons/logos-3/600/React.js_logo-128.png" vertex="1" parent="1">
          <mxGeometry x="640" y="10.000000000000028" width="128" height="128" as="geometry"/>
        </mxCell>
        <mxCell id="FR9h0kr16kNeX0JtV4EL-45" style="edgeStyle=none;rounded=0;orthogonalLoop=1;jettySize=auto;html=1;dashed=1;" edge="1" parent="1" source="FR9h0kr16kNeX0JtV4EL-16" target="FR9h0kr16kNeX0JtV4EL-10">
          <mxGeometry relative="1" as="geometry"/>
        </mxCell>
        <mxCell id="FR9h0kr16kNeX0JtV4EL-46" value="5. generate lustjson" style="text;html=1;align=center;verticalAlign=middle;resizable=0;points=[];labelBackgroundColor=#ffffff;" vertex="1" connectable="0" parent="FR9h0kr16kNeX0JtV4EL-45">
          <mxGeometry x="-0.4099" y="1" relative="1" as="geometry">
            <mxPoint x="44.92" y="-9.64" as="offset"/>
          </mxGeometry>
        </mxCell>
        <mxCell id="FR9h0kr16kNeX0JtV4EL-16" value="ison translator" style="outlineConnect=0;fontColor=#232F3E;gradientColor=#4AB29A;gradientDirection=north;fillColor=#116D5B;strokeColor=#ffffff;dashed=0;verticalLabelPosition=bottom;verticalAlign=top;align=center;html=1;fontSize=12;fontStyle=0;aspect=fixed;shape=mxgraph.aws4.resourceIcon;resIcon=mxgraph.aws4.translate;" vertex="1" parent="1">
          <mxGeometry x="26" y="200" width="78" height="78" as="geometry"/>
        </mxCell>
        <mxCell id="FR9h0kr16kNeX0JtV4EL-37" style="edgeStyle=none;rounded=0;orthogonalLoop=1;jettySize=auto;html=1;" edge="1" parent="1" source="FR9h0kr16kNeX0JtV4EL-18" target="FR9h0kr16kNeX0JtV4EL-11">
          <mxGeometry relative="1" as="geometry"/>
        </mxCell>
        <mxCell id="FR9h0kr16kNeX0JtV4EL-40" value="3.1" style="text;html=1;align=center;verticalAlign=middle;resizable=0;points=[];labelBackgroundColor=#ffffff;" vertex="1" connectable="0" parent="FR9h0kr16kNeX0JtV4EL-37">
          <mxGeometry x="-0.4012" y="-1" relative="1" as="geometry">
            <mxPoint as="offset"/>
          </mxGeometry>
        </mxCell>
        <mxCell id="FR9h0kr16kNeX0JtV4EL-38" style="edgeStyle=none;rounded=0;orthogonalLoop=1;jettySize=auto;html=1;" edge="1" parent="1" source="FR9h0kr16kNeX0JtV4EL-18" target="FR9h0kr16kNeX0JtV4EL-2">
          <mxGeometry relative="1" as="geometry"/>
        </mxCell>
        <mxCell id="FR9h0kr16kNeX0JtV4EL-39" value="3.2" style="text;html=1;align=center;verticalAlign=middle;resizable=0;points=[];labelBackgroundColor=#ffffff;" vertex="1" connectable="0" parent="FR9h0kr16kNeX0JtV4EL-38">
          <mxGeometry x="-0.2456" y="-5" relative="1" as="geometry">
            <mxPoint as="offset"/>
          </mxGeometry>
        </mxCell>
        <mxCell id="FR9h0kr16kNeX0JtV4EL-18" value="" style="shape=image;html=1;verticalAlign=top;verticalLabelPosition=bottom;labelBackgroundColor=#ffffff;imageAspect=0;aspect=fixed;image=data:image/png,iVBORw0KGgoAAAANSUhEUgAAAhEAAADCCAIAAAB4yQftAAAAAXNSR0IArs4c6QAAAARnQU1BAACxjwv8YQUAAAAJcEhZcwAAEnQAABJ0Ad5mH3gAABSWSURBVHhe7d3ByyRHGcfx/CVuQIwYIkbwIHPw5EUWPHgRQfAS5uQhsPHoLeL1RbwsIsSEmFUhuK/wEjQB9zWCEC87kEsGFwYvXl7ow8B7mMNYPd3vzLzd/VQ/VV3V3dX9/fBcsjt5352Z6vpVVXdXv7QHAECHzAAAaJEZAAAtMgMAoEVmAAC0yAwAgBaZAQDQIjMAAFpkBgBAi8wAAGiRGQAALTIDAKBFZgAAtMgMAIAWmQEA0CIzAABaZAYAQIvMAABokRkAAC0yAwCgRWYAALTIDACAFpkBANAiMwAAWmQGAECLzAAAaJEZAAAtMgMAoEVmAAC0yAwAgBaZAQDQIjMAAFpkBgBAi8wAAGiRGQAALTIDAKBFZgAAtMgMAIAWmQEA0CIzAABaZAYAQIvMAABokRkAAC0yAwCgNcXMePLF/ocf7X/57/I/AUzBbr3ZLi9vFne1XO3Kv0GPppgZP//X/kvv5PWzf5Z/AiBtu6vrm5fe/V+llpvyr9GbyWWGmWQUgUFsAFOxXjUExqFuLrLyNejHhDKjWJJ6eHkvM4gNIHm3y2pUnNX1bfkq9GJCmXFckqoXsQEkzJoZrFD1a/SZYWYPP/6r6oS2JTNMffif8mUAUnN1Xc2Je3W5XZcvRHSjz4wfXJWd/uJP5Z9IfvHZKSHq9avn5csAJCfbLio5USlioy/jzoyf/v1ev//yO/vX3t+/8t7+23/cP36+f7zZvyhfmDOpcP7iSpEZQMrk0+B3RWz0YtyZ8b3aCe1KPXi6f3y4bOK3n1f/qlLmBQBS1ni57b3ifHh8486Mt63LTfp669PyBwJIWctsg6lGfKM/n/GdD6sB4Fqvvr//5L/lTwOQuMPd4LW0yOuGC6h6MPrMML7ybjUGnOrNf5Q/B8CErLPdWZV/iNhSyAzjwe+qSaAvzn4DQCCJZIbhHRtkxh0GZTBoBugincwwXvaKDTKjcX83zhbODs0AASSVGcaX3c9tzD4zhHto2dxtXmgGCCK1zDBeea+aCvaaeWaIN9DSWcwJzQCBJJUZv/k837m2EgmtNe/MkK9nz67Kl2D6aAYIJZ3MaL3Tu7G+8cG8b87YXTRfyc5C9qzQDBBMIpnx5Iv2fURMvf7B/qvv5Tfxff33pz+c80bolp3d2GVhPmgGCCeRzLDvc27i5Ner/atnOVGp2caG3FkseJbyfNAMEM7oM6N4foZ9knHcf9ASG/N8fsYmq/QRx2KXhRmhGSCc0WfGW59We//z+v5f8hnGudefVF9T1E/+Vr5gTniKMgyaAQIacWYUz/eudP3nJe1WK21rOL+T4XQWMGgGCGismdF60tv8rSUD3vgkn4L86KNTVaYj80BnAYNmgIBGmRmaq6TYEURB7iy4Kn9GaAYIaEyZUZzu/u6f9197v5oQ52XixMwbeCSGAp0FDJoBAhpHZmgujjoWT2lVo7OAQTNAQCPIDM1KVFHmZbM8LeGNzgIGzQABjSAz7PfrHcsEButRjugsYNAMenZ8Qkn539OSSGZUto36+Fn1BQ+e7j/mEpCqaXQW6+z2apUtr28Wl42VLVfbq4ken0GQGXFlu6vVNm+f1Y/3ri6zqwl1TunMM85v5H5U+1tTeWyUf+/nODqYzAAh7c4iu72oPyPIVjfLEDth0AygYYYypn2KOVGpCe0FOXRm6E9mnC6uzfYPa39b1COvnRDy7776HU9jH55EO4v8aJT2YW0t7zEdzSAZu6vN9mJ1ql5nmWZWoY+KU03nVpihM0M5yTB1ulxKzoyH7jdtbITt2yYxLkiws2h6/qhzuR+fNIN0NL6dHtJ9vdkuvYcyE5rSJZIZ97YJkTPjwbPyJVrycwUmMS6I1VmYHvbsdMLFJtDh2umYvF9uW3zTDLxEagYtxC8r3n6L603mPrG4X6xNBaPJjOoVU5bMeLp/Ub5IxfJcge5NsHk5/mbZ06F1IG5o2qUrbDhoF6uuj2FYr8S9V091ebO83l6ssuWl1Akey+UN0gx8RGkGCnLAx3gWSBZmHDOl/YMHzYyPNvl2s5V+v1INl9j2lBldZrv2gUl/DShGZyH8zC5v6kocCB/KRMVmVxumtaxiOXx9NAMPEZqBjmVSGHT953DeovYrbJXPt2p/aGoxrQdbDZcZmme1fusPzfdkNF43ZWocmSEvBRyrr2vvwnUWhwtezZjL8tb8jlj7kdkyHjedcu1/KWvwzKAZRHJVu1ThWKESy2Ex6jK7WN2uzz7G/CPanNXkrgIfLjPe/qza49frzevyxRVSZphyu9z2dllpAeflNTpQ9BR5dRm9OhB7Q01nsVtvbi+us4V6bu5+xJrAqP6QU11uFV2qOOp0+YRpBhY9NAM3ls82xOepml70eP5mdAZdm3pNfqxeUdLWUsEywzLP9eosrCPWe9XPOTHHzuIwitScLWgux87CFhjq6bz4Dbr8Y2gG9/TbDJzZ8tgr4E+y29azF6Zlns8qZmi4zHjyxf6bwjP1ipIeqWQEywzbPNf5eNb3FHk5Lwv4kP9JxYFdLjX4XG9eL7dFiTCjxUCrLjSDoZqBD3lBslMG55eB1X7gWeVpUb501obLjNYrpixPyAiXGbYxi2P7s/U7TdXHuoRb/9Wp3N6OfNg7XFBkeXeO402aQaga+u34JpZ0g05R09r8o6M0M+Px0+qLj+W6fYhlzOLU/qSfk697Cs2x4zy63W5tPxJCVX5EOQWG+K9y6HFsywjug3eaQfdybQb+LOefvOZt1kxlelEx+8wIM2YRGvHdELV57NllHt0oO56u9FyJ1tbhHq58Z0Cf04DyyQN972m9rMVnqEsz8KhOzaCLsJlhO5vV6200iZh9ZoRof8LKxqmvaX2BpyzfeGfpck2LVx26hmvTNdx237ZPXAXSdp0tl7X4XgtPM2itkM2gG3svX75ISWyQ/ayzJWhameF6f0auc2eRNf6E+/9v85KF85jIHKv57myRewczPs1vt47RNYhLQKqPonXDnw4HOc2gWhGbQWeWk0ZumWGZX0ZfM0zVWDPD/oSl+vMzivLJDMuYRdeRNY1Tqp2X0FfK7XtXXOyY31maV/V/DFiHriEzXcNVVr/XOizxo27v69u3cOi4GwfNoLdmEECoyYH8c5yDfD7GmhmWSYYRMjO6jVmaxym11QZhOCO1b9drbzxqser9zJ40ybCuSq2btiiv1mXW/QinGaREnLA6ZYY8UAh+kmlCyIxOnUXjOKXh/3LrLCzrJMHKaTgWgvimpA9ZufV0qMtaaAYpET7JvPRrSvIPSfVj6cUoM6P10d9BM8Myz23pLBrbXOMIRWqdze3bv7O4O0u5K29VHc1RIX7IDR9XsSBTe2W9gl41TzNIivzhhMiM1lHCnI0yM+yTDOPF8/2D2v9lyiszLPNce9PRji5zQhMX2rel/6rW4UTlqXeoGEtnIR7hZx9XfhuBKipMxdjth2aQkhDLSmEWuGZnuMyw7FE4msywNp2m419sr0JnIbfv9ar5FoTDucriapbylTZyZ+EwHOtM7vvyk65u1//E2xuOZpAUcS0xRGak+7H0YLjMMF4X9pvqOTO8RmEuo0vDubO4Y0aOZZV/4GQUnYXlkiSHWphxtKZ/9EYzSIp8/kl9v4vlY8m/RK+PegYGzQzj1aatbaXtbI+Gz4ymftB25AudRff7uVpIv7fHzsIymtOUGVA3PHApAppBUuTJq8Nlsi1Xpql245+doTPDqMSGZTvbk03IzPA4opr6QecVjLym31m0HJZSmai4/yib+GgGSRHHIi63VlinGnfVf1MctRFkhnEeG62TjNywmdG42GI/7GfbWcj/gKZa5KcrhrpjgGaQFLm7t1+zUKV/JN+7N4v8HFIC9zxGNY7MMIpzG6pJhhE2M+QF98Yjynl0aUgHbezbTYfuLFoXpi7NcXjIieHHcTSDpPisJQradxmo192FauWPmJHRZIbxxictt2Wc9JUZTWvTTYstrcf8TDsLy8LU0vXA9rLenJ7M3HZ40wzSIr4p58zI5XcFqScclSrmH3NZvxpTZjjI9g9rgWHKMzPkrq3eWTSObtoPvHl2FvJvj/7GD+4/N6J1yYJmkBTHeaFKl+QoK19fnfT5DzIjZ7mBoLLQ3PRKzQE/y87CcoLRdnFRMJUMaB1+0gzS4pDxrvJdzgI86bY4/1H+zKkgM3LqzqLp2FM10PF1FvF7bflTHSaxWucZNIO0RMyMo8zMPLbLzk+vOlzcMZHwIDMOdNftNfYpuos0xIPW7RoPZ25r9GGJh7TnirOb2pel6JdpBklRZ3wg2W2xNX3t1+nrJt9SM+74ILpEM2O/f1QLDFPemSGuopx3Fo0HnrJ1zrCzkH919Hfd9IVq3i/NIClyZijGBx2Vz0b0XL+KvqlBTNPKDFPOz3Y9kFfeTwezz7WVRzPsLMS3bCp2ZtR7E9U3RTNIi25eGF++vabH+Y9+Lh0MjswotB/MTSst6qap6YyiGK6zkN9y9EO64VcrfyPNICmDfZ4WbvkR6ukvfUo2M6RHgofOjHII2dg69SdyR9hZRFrzPZLfcuzMaOjWtT0jzSAp8uepnvnFlJ8/b79ydxT/VBdkRkE8qIpvtMNpz4PBOgvLiejInYW4bmAq5q9u+qjVHzLNIC1ixo/pGuL25Ij97YdFZpSkg8pMHoWuxOVgIzPuVbxf3fWbohkkJYnMOMjkf6qppFYIk80M6fGujz1XPeSDqrncZpRyB0pmBNQ4D3D6pmgGSRHnhWPshW2xEfkMX1BkRkm+bq+xHL/j4ToL+X1Fbqa2zIjzq5tH8W6/i2aQFjELxzlyH64BBDS5zHjk+dm7dRauM18y417F+NXCkNPxm6IZpEV+X+OcP7VdZJGCZDNDelSfb2ZY+7hquR7hlp5olpkR/l0Lb9P9PdIMkpLc+5ImRmRGfMEzQz4/WSvnIYyls4jeVoYa21o/z8DvWvhdPr+FZpAW8X2RGbEkmxnSIzQePi//3pW6s/D4dmfZWfR1oYj4xXmtTtAM0pLa+5IyI6FvYXKZ8eBZ+ffOrH3cqXzGL/JVK/E7C7kTjPyr5Wta8go1DBR/i+9BSDOI6/wpWFfdt3odzfvSkZrrSGdFjaaXGb7bFLb0cXflNUAeZ2cR+xp2y7s2FeKN78Rf4f/WaAbRZLf1R6h2Hl8ndVZZ+hbGeZWXIN3MCL0duq6z8GuIQ3YWloFz5M7CshRzqI5jKzkwOl0zQzOIQwytjs1g6PflQmoAY4w32eQyw1ToW8HPyq8zsnVDQ3YWsUc3lrFtUf4btO0uxC+r6zSfZhCDbQDRqXOXP9WxZYZ46qXLEGcA6WaGvLVtvFvBPVvhsJ2F5bfHbqy2N16Uz9vPtvUljmN1/zxpBjFYP9UuMS+/r1Et+GzELafif/WBTTEzot3WF+O0ag8tRj5c4595ky9rOZbDdtDZ7ura9h0F+TBpBjG0JbH/v0H+yWMZv6/lwEjrTEYh5cyQtin0vty2pYPzboIDdxZDXuKpmGrkdXhasuXgWeenT1u68mBrETSDGFpHD5eZ36Pr5Pc1hsywj3L6SOvgppgZ3pfbWpt1h+NqvJ1FH2u+rWc1zip/1P7q9irbrfNnZ7o8fjngs2toBlHY3n5ZXoNu+X2F6JEPTfGuyj9TWm+2C9uA6SahezLOpZwZ0pZT4Z8KbqpD+7N2mkMP8foYi9l6qyAV9mFnNIM42pan8vLpRsX31TEz6lME7Q80aWE55VZUooFhpJwZ0vYhETKj0yE9eGdh/Qf003bjxcbhyRZB0QwisU7gyvKYasg/1v9NZbcNa6qtQ5PDg/la0yLdGUZhiplhyvdpffXFx3y1pOPdqoN3FvZlgT7WJXK2M4GeZY69GJ8ezSASzckt98mB/MF6ds2NgSE3trV5veIZrnfVcfYzvJQzQ7oV3JTv5bZRWIdXvXQW9mO1x1OFTXcC+9Xieut3ynQwNAPddNP5o5Azw+tTbQk2M3pYXue1uLxxHgMleJVUXdKZId/W5727bQzDdxb2Y7XvgU/HCUd6aVGgGeQUUw3XjjVkZpgpZvWHBKpIc+IBJJ0Z8qVTZEaFbWFkmEsS8xm99WaLShWrQwkP02gGBevncCjX9JLX3FwX3Nr/bT7lcAdSChLPjNBP64tiDJ2FNL4zHfHwY/adyY+zvU7vV5ZyTpyjGdxpHcs7nocIlhnBJxl5WqQ4J7ZKPDOk5al0zmf0dwXF4ba4fBG2rMSH7cmhGZy0rFANlRnB5hmX+UrUVA+u1DNjv3+x2T98eqpHz/YfjyzZbQ1xmHUhDIBmcN+66VojE2Pu6/5yZrifc7ZvTtNS5h+/muDEoiL9zEjArnnh3nezBKSJZhCJPGvxu07pcO3sYTZW+4HndZioLa/NRC1fQS3/3xkgM3pzvgkBi0KzRTMILuQ8A63IDABJC3c+AwpkBoCkkRm9IjMApCzwfeBoQWYASBmZ0S8yA8CQ1qtyB6fDNUjuvbx8EXN/d73MCZkBYDjVHv/GtaOXN9FKfgfZcSIzAAyl6fT1pdMdjqFvzkAbMgPAQKRTEfpN/Sy7LnLRVBxkBoChiJfJLlaq2LDs7s7JjEjIDABDsW1W2B4bmxFs7T4/ZAaA4di3kr3eilv+ZVvLMx+5yjYeMgPAgFr2Rc+vpFpVNubaXa3sz1VlkhERmQFgWPLmH+dVPPCj8odNxSQjKjIDwNBsD511LC6XiozMADAC2W3bIpWiuCcjPjIDwFisNw0P71NW/vDt8scgIjIDwKjs8uRwmnMcnmpe/t+IjMwAME4mPLYX18VjVhsrW662PBm3Z2QGAECLzAAAaJEZAAAtMgMAoEVmAAC0yAwAgBaZAQDQIjMAAFpkBgBAi8wAAGiRGQAALTIDAKBFZgAAtMgMAIAWmQEA0CIzAABaZAYAQIvMAABokRkAAC0yAwCgRWYAALTIDACAFpkBANAiMwAAWmQGAECLzAAAaJEZAAAtMgMAoEVmAAC0yAwAgBaZAQDQIjMAAFpkBgBAi8wAAGiRGQAALTIDAKBFZgAAtMgMAIAWmQEA0Nnv/w/TzrMAMKG5ewAAAABJRU5ErkJggg==;" vertex="1" parent="1">
          <mxGeometry x="248.44" y="412" width="158.14" height="58" as="geometry"/>
        </mxCell>
        <mxCell id="FR9h0kr16kNeX0JtV4EL-32" style="edgeStyle=none;rounded=0;orthogonalLoop=1;jettySize=auto;html=1;" edge="1" parent="1" source="FR9h0kr16kNeX0JtV4EL-31" target="FR9h0kr16kNeX0JtV4EL-1">
          <mxGeometry relative="1" as="geometry"/>
        </mxCell>
        <mxCell id="FR9h0kr16kNeX0JtV4EL-33" value="1. load o.j" style="text;html=1;align=center;verticalAlign=middle;resizable=0;points=[];labelBackgroundColor=#ffffff;" vertex="1" connectable="0" parent="FR9h0kr16kNeX0JtV4EL-32">
          <mxGeometry x="-0.1026" y="4" relative="1" as="geometry">
            <mxPoint as="offset"/>
          </mxGeometry>
        </mxCell>
        <mxCell id="FR9h0kr16kNeX0JtV4EL-34" style="edgeStyle=none;rounded=0;orthogonalLoop=1;jettySize=auto;html=1;" edge="1" parent="1" source="FR9h0kr16kNeX0JtV4EL-31" target="FR9h0kr16kNeX0JtV4EL-18">
          <mxGeometry relative="1" as="geometry"/>
        </mxCell>
        <mxCell id="FR9h0kr16kNeX0JtV4EL-36" value="2. load intents" style="text;html=1;align=center;verticalAlign=middle;resizable=0;points=[];labelBackgroundColor=#ffffff;" vertex="1" connectable="0" parent="FR9h0kr16kNeX0JtV4EL-34">
          <mxGeometry x="0.3112" relative="1" as="geometry">
            <mxPoint as="offset"/>
          </mxGeometry>
        </mxCell>
        <mxCell id="FR9h0kr16kNeX0JtV4EL-41" style="edgeStyle=none;rounded=0;orthogonalLoop=1;jettySize=auto;html=1;" edge="1" parent="1" source="FR9h0kr16kNeX0JtV4EL-31" target="FR9h0kr16kNeX0JtV4EL-16">
          <mxGeometry relative="1" as="geometry"/>
        </mxCell>
        <mxCell id="FR9h0kr16kNeX0JtV4EL-42" value="4. traslate by i.t." style="text;html=1;align=center;verticalAlign=middle;resizable=0;points=[];labelBackgroundColor=#ffffff;" vertex="1" connectable="0" parent="FR9h0kr16kNeX0JtV4EL-41">
          <mxGeometry x="-0.3096" y="-1" relative="1" as="geometry">
            <mxPoint as="offset"/>
          </mxGeometry>
        </mxCell>
        <mxCell id="FR9h0kr16kNeX0JtV4EL-50" style="edgeStyle=none;rounded=0;orthogonalLoop=1;jettySize=auto;html=1;" edge="1" parent="1" source="FR9h0kr16kNeX0JtV4EL-31" target="FR9h0kr16kNeX0JtV4EL-12">
          <mxGeometry relative="1" as="geometry"/>
        </mxCell>
        <mxCell id="FR9h0kr16kNeX0JtV4EL-51" value="6. render views" style="text;html=1;align=center;verticalAlign=middle;resizable=0;points=[];labelBackgroundColor=#ffffff;" vertex="1" connectable="0" parent="FR9h0kr16kNeX0JtV4EL-50">
          <mxGeometry x="-0.4385" y="-2" relative="1" as="geometry">
            <mxPoint x="22.29" as="offset"/>
          </mxGeometry>
        </mxCell>
        <mxCell id="FR9h0kr16kNeX0JtV4EL-52" style="edgeStyle=none;rounded=0;orthogonalLoop=1;jettySize=auto;html=1;dashed=1;" edge="1" parent="1" source="FR9h0kr16kNeX0JtV4EL-31" target="FR9h0kr16kNeX0JtV4EL-10">
          <mxGeometry relative="1" as="geometry"/>
        </mxCell>
        <mxCell id="FR9h0kr16kNeX0JtV4EL-53" style="edgeStyle=none;rounded=0;orthogonalLoop=1;jettySize=auto;html=1;dashed=1;" edge="1" parent="1" source="FR9h0kr16kNeX0JtV4EL-31" target="FR9h0kr16kNeX0JtV4EL-13">
          <mxGeometry relative="1" as="geometry"/>
        </mxCell>
        <mxCell id="FR9h0kr16kNeX0JtV4EL-31" value="" style="shape=image;html=1;verticalAlign=top;verticalLabelPosition=bottom;labelBackgroundColor=#ffffff;imageAspect=0;aspect=fixed;image=data:image/png,iVBORw0KGgoAAAANSUhEUgAAARcAAADCCAIAAADsNRGrAAAABGdBTUEAALGPC/xhBQAAAAlwSFlzAAASdAAAEnQB3mYfeAAADIZJREFUeF7tnb2LLFkVwPdPemIgjIgGYmCkGz0wlU42MjN5ZppsMpnZzrKyLqKoM0IjLMi+wVXYRHaihU5ewwYmDRUMDNIL7a2P6b51P6pv3XNv1a3Xvx+H4b3u6uqv+6tz7qmPfucAADKwCEAKFgFIwSIAKVgEIAWLAKRgEYAULAKQgkUAUrAIQAoWAUjBIgApWAQgBYsApGARgBQsApCCRQBSsAhAChYBSMEiAClYBCAFiwCkYBGAFCwCkIJFAFKwCEAKFgFIwSIAKVgEIAWLAKRgEYAULAKQgkUAUrAIQAoWAUjBIgApWAQgBYsApGARgBQsApCCRQBSsAhAChYBSMEiAClYBCBlbos+//rw878f3v+i+/vjP9Vxu+nuBVgCc1v0wz8cXnxoxnd+190LsATmtsjwp41f/7u714nKVD/45PDtj+q/f/yquxFgPma1SDlg+NPGBw/dAja//Y+5sLoFYFZmtchZzqnwVXStQt+ylh+wDiA/s1pkyKDHV7tumZY328Nv/mUucwxlHQ0JmI9ZLVKj3/DhGL/4R7eM4tVtfYudgvSgIQHzMatFv3xtyqBHm45uGoXaOIrkNApgJma1SHmia/Czv/X+W6ejbe8WIxTGfwHmYFaLFL/650mD735c/9XzzI9+f/q3EWqx7/XvBZiJuS363zc9E+wYruL0AJiJuS1SHHsMTk90iwZEUlMsgJkowKL3v+j5MOySET/9S/1XzaBUTgOYiQIsUgK892nPjcAAKIMCLFKcnR05A6AMyrBIYeyBbUs4JkKwBIqxyDc7cor0kz8zEYJyKMYiZcW7fz15MpCF2jAOtAOYj2IsUnz/E1OVscF5sjAHJVnUmnA2Cw0Hh6XC5JRnkTCGz5MFyMDCLcIZKICSLBqo5ejIQcGUnYuOXgEUzBIqOso2KJuyLXrvU2o5KJ9iLPr8a1MhFSgES6AYi+yralHIwUIoxiJDIRUOqsPN68Or14eb7eFNd9Os7Dfbp+uHanX/HA+P66q7Dy6HRVmkXw/oxe1cIm22j9f3u6uP/vuOJ1bbbkm4EEq1yHniw6v+Mi+/7G6fhE31tLrbGcK44+7xbT6Yr3q6vq+u7nZXD/vulounSIt8rTnDoheTnGJU7deDmccR90/dY9826o9Ce6fVurv90inSIh+mRZmLuvDk04+3dSO9vjffKbVrSxkW3W5Obgy05kyLPjx81t2TmNofc8QEx1Rb6LqyOiZJVV89ZS4jn1an99hF2u2FqpnXD9X1w9PiOjQFWGT8/soAU1hkFC3eUBODri/Xz1eTbJ7dLzJvDqweHWVtqtq1ejQ2W1eLqooLsEjfUzS8j8i26CblVmuzrYbnP1d39ZZyYz9nM+Fe3T+uqwlqOW+ezCywIxclsWjz4N5sLagwLsCi43VLzh6p0Ot0p7Vor6oj41s8xtVEeoSwv/YolH/MuZ5a3I30KdTE7nohpV0BFn3wUPsQcqRCJouctUodu1X2ycY47Pl9F5P01h3PLnzebWWusB9LSUdldBcCyWCRp4rbrbb7ovyp8Y65ifoZrrwheGrvxkuLhex5u2iLnOWEmtcW+c35ajlf2bOvW17bLhxzuQgcGkdb5Hg7atq5MnfNLaOoW5RFn1m/GiawyKVQud9Z8BR8X2fXDBOYGodFkZ+Y+XbuTscfGnctYpfUpVpkD4iiiwdXf0yF+Zq9vYc0Y9FRg0VZZKzHSP79excxNbpIi+zRUHb97UlEVjXln6wn2qI7ZI5Yc69L4fjk+9uCJew4ukSLrF7TVEcbxOGZhTuGr98ilTRWW/lG3ZHrRlvUe5HuT/6cZsVxeRZZg7LwmsHd3faMLffCzyF+p3KLemvwPbb/LsrexjUsyqI3X8oteisS0cBsZH9GJFkH0l75ODP1ROQv1foV7ALadJdmkbU1LbtgcCtxbqpw5lBAwVu2Z2hjLNI//CE3FtemuzSLrPlxyZPX0YnoxJljAmNFElmkJaIzj+pP8LAoKXKLFjUpcrbmRrzg4fM74kSyGxihmyE9EZ2rovvPUvJ31LIoiw7b5BYVnIuc+4jGzuIGT/SIECn6A9QeeN4KLMpJBouKnbzaW/3Y8TRU3Y0VKdYibYIXsCEw3nvJVXfDhVnk6tXW32t5Irn6CoJ2omPz8RzjxqiVIUM81J895OmwKCeWRRHnurq28SojFXYShKucEw4m/zRpTIqLsUjbIoRlfuM7ipvCTciyLKoOL8UW+drHbbRns3YLzodD9SSVpzMVqwhf+fhdBWMTkcLInFiUlDQWKQIurrCb6gxwBw7Pk40kj0ih67cffqbO1DqNwa5iUU6SWaTYbM0rZnijvlDJ43q68/Yc5VzSfSbO7l/oU1iGD1ukPVe4DFiUE8ui0d0Fg+ZsHP0LOx+tUYnOe3PiKOcEfQUnxjBtI2ywWnuxhl6bvvCIDYH58lK//dQsyyLrMkBSizqavHS2xnOE96pAAhw7WzM0qVy7dIMqLuuBA4/Syr9R+QSL8pLHoiNnr2Tvj12iSwU55i15DoGJrRvNVOm3SFty3J4u8ymwKC2ZLTpR7dcPsQlKpJM9uHONIbuHETTWrYLT5562/pFvAYvyMplFOs9GjZ5BRTTNrTGacZ9j3HNZcyq3RfpiY98CFuXFuAzQNBb12I+s+lSlN8Ile7qS8Sgyu8cQNNzNbOl8hdobCd8Z9QwW5WV+i3Sa39Krf8xH/8qdEXrCtlVljR+C4dgWBfUAQiyKanAfMS3K+SGkAItS0eWo/tffi4CsMnqfpojIXGS9SPtRmgYxrREsyotx6YVXWbpXQppf3dMHwSnOiWS1FrLucDQHa2j1aCZM0yJds5itwJhmehFgUS581y4eGhCRySESew4WmDdMiwzVtXcRqKUBFmVmORbVqKTUGw1NDIgRmxziiJ6DmaO8b5G22sjRj0WZMU4aL9wihZ1e/EWOnRxyWhRfPQ5aJOsrNGBRZgyLpv2Z8TjCx4SVHKKm5mGIjDVz5mm7oK82+sVHJ8m5wKL8WOnIN7wmtMguNce0Acx3dHystK/QgkW56Z/uugiLrCEbbFGu0SNKRArToufXqd8u6ItgUW6Mk8ZfdzcXjbGDxTcm7J1FeUbPmKmaB2O70L1ObfRLXvlUn0M6FmeRcYoRFo3FfpaIHoa5kia7JugrNGBRdgyLbg9vujsKpr/l9o6wKUaPXctFTWBcFmktB1lr0Z6zYVFyjMO6BSeNT0S/ozUwwnJ3FzbW/igVcU9hvNTVVvcqvq/QgEUTMMvJEfEYm+2hASGd9A/iVCi6B2BYdHWvHaghPd4CiybAsKjsHa9mehkeYfZAF00wTrgVEqzcVRl2Ic2fjuYHFiXHOKy75EPpzKF2bjQ4BpC8qPNdqls2NJ1aqpBrn+VDyMvyLSp1l1FUeWY3GFQIhrv36HLx1t1jUYIS1LVmLEqN+buUBTa7XZv/sI20p1KKGPT79YPvImFihRSujJFmzVg0BeavGJXV7N5sXcPrLrxtZc+tu6jPPA8aowP+qEgx0BVOi5LM4rBoCuzfAkvY7K66C6bG/CK3r3waoVCDb8rRRnehVmXUXg91y/lz19UrSaJQjcP2JGPdmY2xKDny319xczqvbuS4by4K2fvWTzFWoQZ7x5E8ru7TtPuesSySNrg7sGgarOsMp2jT6V9e4Hd2/kIL8QPX2WaIjtBrp4xio+rGu10T1XW69WPRNFgWidt0jm+uuXTwul81bbZPa5V2Ai/6I+1WpRGpucRkt8ZFgEVTYex4FVo0PA+JiGTTj+E+wZlYnD8tzmoWizKQstnt7YnFRNLapqOq++YjXLor7XcBx4FFU2G26eItctYPMaHGboa5R4/2Qsd1PdnORk6hbmzrz27JJYNFE6IXdZLugnvv4YhQc+u3Y/gWgsuiRPu4srFYiw7bw8vbOm6km6m4dKRmHemLN3BalOiQ3Hws16Kk1MVSUykZ398x6sKpyv4reqDoVwepd3NlAYugROqjMarJfkhXChYBSMEiAClYBCAFiwCkYBGAFCwCkIJFAFKwCEAKFgFIwSIAKVgEIAWLAKRgEYAULAKQgkUAUrAIQAoWAUjBIgApWAQgBYsApGARgBQsApCCRQBSsAhAChYBSMEiAClYBCAFiwCkYBGAFCwCkIJFAFKwCEAKFgFIwSIAKVgEIAWLAKRgEYAULAKQgkUAUrAIQAoWAUjBIgApWAQgBYsApGARgBQsApCCRQBSsAhAChYBSMEiAClYBCAFiwCkYBGAFCwCkIJFAFKwCEAKFgHIOBz+D5QCbeQzZJWzAAAAAElFTkSuQmCC;" vertex="1" parent="1">
          <mxGeometry x="360" y="250" width="122.09" height="85" as="geometry"/>
        </mxCell>
      </root>
    </mxGraphModel>
  </diagram>
</mxfile>
